<svg width="50" height="50" fill="none" xmlns="http://www.w3.org/2000/svg"><circle cx="25" cy="25" r="24" stroke="#FF0200" stroke-width="2"/><path d="M35.088 17.506H14.913c-.635 0-1.153.519-1.153 1.153V31.34c0 .634.518 1.153 1.153 1.153h20.175c.634 0 1.153-.519 1.153-1.153V18.66c0-.634-.52-1.153-1.153-1.153zm-.433.864l-8.992 6.745c-.161.123-.41.2-.663.199a1.124 1.124 0 01-.663-.2l-8.992-6.744h19.31zm-4.803 7.19l4.9 6.052.016.017H15.233l.016-.017 4.9-6.052a.432.432 0 00-.673-.544l-4.852 5.993V18.911l9.194 6.895c.346.258.766.371 1.182.372.415 0 .836-.114 1.182-.372l9.194-6.895v12.098l-4.852-5.993a.432.432 0 10-.672.544z" fill="#FF0200" stroke="#FF0200"/></svg>