<svg width="50" height="51" fill="none" xmlns="http://www.w3.org/2000/svg"><circle cx="25" cy="25.031" r="24" stroke="#F96603" stroke-width="2"/><path d="M35.088 17.54H14.913c-.635 0-1.153.518-1.153 1.152v12.681c0 .634.518 1.153 1.153 1.153h20.175c.634 0 1.153-.518 1.153-1.153V18.692c0-.634-.52-1.153-1.153-1.153zm-.433.864l-8.992 6.744c-.161.123-.41.2-.663.199a1.124 1.124 0 01-.663-.199l-8.992-6.744h19.31zm-4.803 7.189l4.9 6.053.016.016H15.233l.016-.016 4.9-6.053a.432.432 0 00-.673-.544l-4.852 5.993V18.944l9.194 6.896c.346.257.766.37 1.182.371.415 0 .836-.114 1.182-.371l9.194-6.896v12.098l-4.852-5.993a.432.432 0 10-.672.544z" fill="#F96603" stroke="#F96603"/></svg>