<svg width="50" height="50" fill="none" xmlns="http://www.w3.org/2000/svg"><path d="M26.552 36.444h-3.688c-.616 0-1.117-.5-1.117-1.115v-8.301h-2.151c-.616 0-1.117-.5-1.117-1.115v-3.558c0-.614.5-1.114 1.117-1.114h2.151v-1.782c0-1.766.556-3.269 1.607-4.345 1.056-1.082 2.532-1.653 4.268-1.653l2.812.005a1.118 1.118 0 011.115 1.114v3.303c0 .615-.5 1.115-1.116 1.115h-1.894c-.578 0-.725.116-.756.152-.052.059-.114.225-.114.683v1.408h2.621a1.118 1.118 0 011.127 1.115v3.557c0 .614-.502 1.114-1.118 1.114h-2.63v8.302c0 .615-.5 1.115-1.117 1.115zm-3.455-1.347h3.222v-8.673c0-.41.335-.744.746-.744h3.001l.001-3.092h-3.002a.746.746 0 01-.746-.744v-2.01c0-.527.054-1.126.452-1.576.481-.544 1.24-.607 1.768-.607h1.66v-2.838l-2.578-.005c-2.79 0-4.524 1.783-4.524 4.651v2.385c0 .41-.334.744-.745.744h-2.523v3.092h2.523c.41 0 .745.334.745.744v8.673zm7.334-20.284h0z" fill="#fff" stroke="#fff" stroke-width=".5"/><circle cx="25" cy="25" r="24" stroke="#fff" stroke-width="2"/></svg>