<svg width="50" height="50" fill="none" xmlns="http://www.w3.org/2000/svg"><path d="M30.239 13.576H19.761a6.191 6.191 0 00-6.185 6.185v10.478a6.191 6.191 0 006.185 6.184h10.478a6.191 6.191 0 006.184-6.184V19.76a6.191 6.191 0 00-6.184-6.185v0zm4.845 16.663a4.85 4.85 0 01-4.845 4.845H19.761a4.85 4.85 0 01-4.845-4.845V19.76a4.85 4.85 0 014.845-4.845h10.478a4.85 4.85 0 014.845 4.845v10.478z" fill="#fff" stroke="#fff" stroke-width=".5"/><path d="M25 18.752a6.254 6.254 0 00-6.247 6.247A6.254 6.254 0 0025 31.246 6.254 6.254 0 0031.247 25 6.254 6.254 0 0025 18.752zm0 11.155a4.913 4.913 0 01-4.908-4.908A4.913 4.913 0 0125 20.091 4.913 4.913 0 0129.907 25 4.913 4.913 0 0125 29.907z" fill="#fff" stroke="#fff" stroke-width=".5"/><path d="M31.396 16.535a1.848 1.848 0 00-1.846 1.846c0 1.018.828 1.846 1.846 1.846a1.848 1.848 0 001.847-1.846 1.848 1.848 0 00-1.847-1.846zm0 2.353a.507.507 0 11.002-1.015.507.507 0 01-.002 1.015z" fill="#fff"/><circle cx="25" cy="25" r="24" stroke="#fff" stroke-width="2"/></svg>