<svg width="50" height="51" fill="none" xmlns="http://www.w3.org/2000/svg"><circle cx="25" cy="25.031" r="24" stroke="#F96603" stroke-width="2"/><path d="M29.006 20.83l-6.135 3.778a.918.918 0 00-.4 1.03l.664 2.33a.452.452 0 00.471.33.452.452 0 00.419-.394l.172-1.278a.755.755 0 01.233-.45l5.063-4.706a.403.403 0 00-.487-.64zm-4.98 4.91a1.35 1.35 0 00-.418.807l-.084.62-.481-1.692a.322.322 0 01.14-.36l4.494-2.769-3.652 3.395z" fill="#F96603" stroke="#F96603"/><path d="M34.779 15.517a1.024 1.024 0 00-1.032-.175l-20.232 7.805c-.4.155-.658.532-.656.961.002.43.264.805.667.956l4.725 1.764 1.844 5.929a1.023 1.023 0 001.626.49l2.748-2.24a.376.376 0 01.458-.013l4.956 3.598a1.022 1.022 0 00.972.127 1.02 1.02 0 00.634-.747l3.63-17.465a1.025 1.025 0 00-.34-.99zm-.528.81L30.62 33.79a.133.133 0 01-.085.1.134.134 0 01-.13-.017l-4.956-3.599a1.262 1.262 0 00-1.541.043l-2.748 2.24a.133.133 0 01-.126.026.134.134 0 01-.091-.09l-1.909-6.137a.444.444 0 00-.268-.284l-4.93-1.84a.13.13 0 01-.09-.129c0-.043.016-.1.089-.128l20.232-7.805s0 0 0 0a.132.132 0 01.138.023c.023.02.06.063.046.132z" fill="#F96603" stroke="#F96603"/></svg>