<svg width="50" height="50" fill="none" xmlns="http://www.w3.org/2000/svg"><circle cx="25" cy="25" r="24" stroke="#FF0200" stroke-width="2"/><path d="M29.006 20.797l-6.135 3.778a.918.918 0 00-.4 1.03l.664 2.33a.452.452 0 00.47.33.452.452 0 00.42-.394l.172-1.278a.755.755 0 01.233-.45l5.063-4.706a.403.403 0 00-.487-.64zm-4.98 4.91a1.35 1.35 0 00-.418.806l-.084.62-.481-1.692a.321.321 0 01.14-.36l4.494-2.768-3.652 3.395z" fill="#FF0200" stroke="#FF0200"/><path d="M34.779 15.485a1.024 1.024 0 00-1.032-.174l-20.232 7.805c-.4.155-.658.532-.656.961.002.43.263.805.666.956l4.726 1.764 1.844 5.928a1.023 1.023 0 001.626.49l2.748-2.24a.376.376 0 01.458-.013l4.956 3.599a1.022 1.022 0 00.972.127 1.02 1.02 0 00.634-.747l3.63-17.465a1.025 1.025 0 00-.34-.99zm-.528.81L30.62 33.76a.133.133 0 01-.085.1.134.134 0 01-.13-.018l-4.957-3.598a1.261 1.261 0 00-1.54.043l-2.749 2.24a.133.133 0 01-.125.026.134.134 0 01-.091-.091l-1.909-6.137a.444.444 0 00-.268-.284l-4.93-1.84a.13.13 0 01-.09-.128c0-.043.016-.1.089-.129l20.232-7.805s0 0 0 0a.132.132 0 01.138.024c.023.02.06.063.046.132z" fill="#FF0200" stroke="#FF0200"/></svg>