<svg width="50" height="51" fill="none" xmlns="http://www.w3.org/2000/svg"><g clip-path="url(#clip0_1293_1255)" fill="#F96603"><path d="M33.591 15.44a11.561 11.561 0 00-8.23-3.409s0 0 0 0c-1.538 0-3.037.298-4.454.885a11.582 11.582 0 00-3.775 2.524 11.562 11.562 0 00-3.41 8.23c0 1.854.448 3.696 1.296 5.338l-1.957 5.588a1.07 1.07 0 00.256 1.119 1.07 1.07 0 001.118.255l5.589-1.956a11.673 11.673 0 005.337 1.294c3.11 0 6.032-1.21 8.23-3.408A11.563 11.563 0 0037 23.67a11.56 11.56 0 00-3.409-8.23zm-.995 15.464a10.163 10.163 0 01-7.234 2.997c-1.672 0-3.333-.414-4.803-1.196a1.084 1.084 0 00-.865-.067l-5.077 1.777 1.777-5.078a1.085 1.085 0 00-.067-.864 10.257 10.257 0 01-1.197-4.803c0-2.733 1.065-5.302 2.997-7.235a10.165 10.165 0 017.233-2.996h.002c2.732 0 5.302 1.064 7.234 2.997a10.163 10.163 0 012.997 7.234c0 2.733-1.065 5.302-2.997 7.234z" stroke="#F96603" stroke-width=".5"/><path d="M29.687 24.708a1.375 1.375 0 00-1.942 0l-.586.585a8.524 8.524 0 01-3.423-3.423l.586-.585a1.375 1.375 0 000-1.942l-1.578-1.578a1.375 1.375 0 00-1.942 0l-1.263 1.262c-.723.723-.759 1.966-.101 3.5.57 1.333 1.615 2.797 2.942 4.123 1.326 1.326 2.79 2.371 4.122 2.942.729.312 1.392.468 1.965.468.633 0 1.156-.19 1.536-.57l1.262-1.262c.26-.26.402-.604.402-.971s-.143-.712-.402-.971l-1.578-1.578zm-.68 3.787c-.206.206-.84.279-1.95-.197-1.172-.502-2.48-1.44-3.682-2.643-1.203-1.203-2.141-2.51-2.643-3.682-.476-1.11-.404-1.744-.197-1.95l1.238-1.239 1.53 1.53-.734.733a1.074 1.074 0 00-.199 1.25 9.93 9.93 0 004.362 4.362c.417.213.92.133 1.25-.198l.734-.733 1.53 1.529-1.239 1.238z"/></g><circle cx="25" cy="25.031" r="24" stroke="#F96603" stroke-width="2"/><defs><clipPath id="clip0_1293_1255"><path fill="#fff" transform="translate(13 12.031)" d="M0 0h24v24H0z"/></clipPath></defs></svg>